# xmcd
#
# Track frame offsets: 
#        150
#        6257
#        20463
#        44068
#        62997
#        66590
#        82253
#        103168
#        121193
#        125625
#        140341
#        142652
#        148260
#        164177
#        184650
#        194419
#        199514
#        218575
#        240633
#        252542
#
# Disc length: 3439 seconds
#
# Revision: 1
# Processed by: cddbd v1.5.2PL0 Copyright (c) Steve Scherf et al.
# Submitted via: ExactAudioCopyFreeDBPlugin 1.0
#
DISCID=3e0d6d14
DTITLE=The Divorcees - Four Chapters
DYEAR=2012
DGENRE=Country
TTITLE0=Chapter One
TTITLE1=Driver, Drive'r
TTITLE2=Traveller's Dream
TTITLE3=Ride Free
TTITLE4=Chapter Two
TTITLE5=Restless Man
TTITLE6=Ghost Town
TTITLE7=Big City
TTITLE8=Crows (Interlude)
TTITLE9=Crows
TTITLE10=Crows (Outro)
TTITLE11=Chapter Three
TTITLE12=Time Will Tell
TTITLE13=How Long (will you break her heart)
TTITLE14=Precious Time
TTITLE15=Chapter Four
TTITLE16=Devil On My Shoulder
TTITLE17=Life Behind Bars
TTITLE18=Goodbye Jack
TTITLE19=Dusty Trail
EXTD=
EXTT0=
EXTT1=
EXTT2=
EXTT3=
EXTT4=
EXTT5=
EXTT6=
EXTT7=
EXTT8=
EXTT9=
EXTT10=
EXTT11=
EXTT12=
EXTT13=
EXTT14=
EXTT15=
EXTT16=
EXTT17=
EXTT18=
EXTT19=
PLAYORDER=
